<?xml version="1.0" encoding="UTF-8"?>
<svg id="Layer_1" data-name="Layer 1" xmlns="http://www.w3.org/2000/svg" viewBox="0 0 300 95.96">
  <defs>
    <style>
      .cls-1 {
        fill: #010101;
      }

      .cls-2 {
        fill: #fff;
      }
    </style>
  </defs>
  <g id="eP6gFl">
    <g>
      <path class="cls-2" d="M151.09,28.4l16.22,41.09c1.66,2.57,4.95.71,4.04-2.02l-18.33-46.03c-.98-1.81-3.19-1.71-4.16.05l-18.4,45.97c-.82,2.94,2.48,4.55,4.16,1.96l16.1-40.57.37-.45ZM256.85,20.74c-1.48.3-2.13,2.04-1.37,3.3l11.83,20.56-13.72,23.86c-.92,2.24,2.18,4.13,3.76,2.29,4.26-8.16,9.97-16.08,14.07-24.26,1.21-2.41.62-2.47-.55-4.65-3.68-6.84-7.96-13.4-11.69-20.22-.65-.83-1.25-1.11-2.33-.89ZM274.51,30.6c-1.34-2.35-2.57-4.8-4.01-7.09-.97-1.55-1.8-3.62-4.01-2.48-1.59.82-1.29,2.12-.64,3.46,1.96,4,4.95,7.9,6.95,11.93.99,1.24,2.6,1.26,3.61.03,2.01-4.05,5.08-8.05,6.98-12.09,1.44-3.04-1.71-4.75-3.31-2.94l-5.21,9.06-.38.11ZM291.14,20.74c-.48.11-.92.61-1.2,1-3.63,7.17-8.61,14.05-12.16,21.21-.24.49-.73,1.32-.7,1.85.03.51,1.11,2.21,1.43,2.79,4.13,7.57,8.81,14.86,12.98,22.42,1.36,2.84,5.15,1.11,4.15-1.77l-13.76-23.64,12.16-21.14c.48-1.74-1.28-3.09-2.9-2.72ZM225.91,26.02h21.36c.07,0,.86-.37,1-.47,1.9-1.29.84-4.02-1.37-4.12l-23.46.02c-1.48.28-2.01,1.21-2.13,2.64v44.39c.12,1.43.58,2.41,2.11,2.66l23.83-.02c2.03-.15,2.74-3.07,1.02-4.1-.23-.14-1.18-.47-1.37-.47h-21V26.02ZM191.99,53.16c2.32-.11,4.76.15,7.06,0,19.75-1.28,18.92-30.27,1.11-31.55-6.35-.46-13.23.36-19.64,0-1.24,0-2.12.87-2.11,2.11l.02,45.66c.35,1.42,1.93,1.96,3.24,1.43.27-.11,1.15-1.01,1.15-1.24V26.02h17.15c.39,0,2.22.59,2.71.78,8.66,3.32,8.88,17.24.38,20.83-4.47,1.89-9.22.32-13.71.96-.85.12-1.34.64-1.8,1.31l-.1,19.63c.46,1.57,2.82,1.92,3.91.87.18-.17.64-1.03.64-1.2v-16.05ZM189,30.64c-2.21.45-2.2,4.14.32,4.37,2.22.2,7.9-.51,9.52.38,1.34.74,1.5,2.95.18,3.8-1.22.78-2.93.21-4.33.44-2.5.42-2.45,3.88-.03,4.34,1.44.28,4.55.06,5.89-.51,5.74-2.41,4.76-12.1-1.7-12.85-1.67-.2-8.34-.28-9.84.02ZM234.9,35h12.56c1.7,0,2.79-3.82.14-4.36-4.79.32-10.5-.58-15.18-.04-1.43.16-1.97,1.12-2.11,2.48-.2,2.04-.2,6.39,0,8.43.13,1.29.71,2.34,2.1,2.49,3.42.36,7.61-.22,11.11-.1,1.41-.48,1.98-1.99,1.25-3.28-.13-.24-.96-1.03-1.17-1.03h-8.44l-.28-.28v-4.31ZM150.73,53.16h-3.76c-.13,0-.94.56-1.09.74-.91,1.11-.41,3.21,1,3.57.91.24,6.74.24,7.79.08,1.82-.28,2.04-1.91,1.58-3.39-.61-1.93-2.05-5.5-2.97-7.3-.69-1.36-1.42-2.12-3.1-1.68-3.46.91.45,6,.56,7.98ZM234.9,53.16h8.16s.77-.32.89-.39c1.68-1,1.47-3.48-.43-4.1-3.46.15-7.74-.5-11.1-.09-1.52.18-1.99,1.29-2.11,2.66-.18,2.08-.2,6.2,0,8.26.15,1.52.9,2.49,2.47,2.66,4.46.48,9.85-.29,14.4-.08,1.6-.19,2.56-1.8,1.8-3.29-.18-.35-1.17-1.22-1.54-1.22h-12.56v-4.4ZM274.87,59.02l6.88,11.92c1.84,2.01,4.97-.26,3.56-2.64-2.5-4.02-4.71-8.23-7.17-12.27-1.25-2.06-2.57-5.55-5.36-2.87l-8.98,15.41c-.91,2.47,1.84,4.18,3.75,2.46l6.88-11.82.45-.19ZM145.44,66.75h10.85c.61.21.9,3.04,2.19,3.68,2.07,1.02,3.6-.74,3.2-2.84-.11-.58-1.79-4.43-2.15-4.81-.25-.27-.84-.57-1.21-.63l-15.12.07c-.32.2-.73.39-.98.67-.61.67-2.19,4.85-2.14,5.76.06,1.13,1.1,2.15,2.25,2.07,2.08-.16,2.32-2.46,3.11-3.97Z"/>
      <path d="M191.99,53.16v16.05c0,.16-.46,1.03-.64,1.2-1.09,1.05-3.45.7-3.91-.87l.1-19.63c.47-.67.96-1.19,1.8-1.31,4.49-.64,9.24.94,13.71-.96,8.5-3.6,8.27-17.51-.38-20.83-.48-.19-2.32-.78-2.71-.78h-17.15v43.55c0,.22-.88,1.13-1.15,1.24-1.32.53-2.89-.01-3.24-1.43l-.02-45.66c0-1.24.87-2.12,2.11-2.11,6.41.36,13.29-.46,19.64,0,17.81,1.28,18.64,30.27-1.11,31.55-2.3.15-4.74-.11-7.06,0Z"/>
      <path d="M151.09,28.4l-.37.45-16.1,40.57c-1.68,2.58-4.98.97-4.16-1.96l18.4-45.97c.97-1.77,3.18-1.87,4.16-.05l18.33,46.03c.91,2.74-2.38,4.59-4.04,2.02l-16.22-41.09Z"/>
      <path d="M225.91,26.02v40.53h21c.19,0,1.14.33,1.37.47,1.72,1.03,1.01,3.95-1.02,4.1l-23.83.02c-1.53-.25-1.99-1.23-2.11-2.66V24.08c.12-1.43.65-2.35,2.13-2.64l23.46-.02c2.21.1,3.27,2.83,1.37,4.12-.14.09-.93.47-1,.47h-21.36Z"/>
      <path d="M256.85,20.74c1.08-.22,1.68.06,2.33.89,3.72,6.82,8.01,13.38,11.69,20.22,1.17,2.18,1.76,2.23.55,4.65-4.1,8.18-9.81,16.1-14.07,24.26-1.59,1.83-4.68-.05-3.76-2.29l13.72-23.86-11.83-20.56c-.76-1.26-.11-3,1.37-3.3Z"/>
      <path d="M291.14,20.74c1.62-.37,3.38.98,2.9,2.72l-12.16,21.14,13.76,23.64c1,2.88-2.8,4.61-4.15,1.77-4.16-7.56-8.85-14.84-12.98-22.42-.32-.59-1.4-2.28-1.43-2.79-.04-.54.45-1.36.7-1.85,3.55-7.16,8.53-14.04,12.16-21.21.28-.39.72-.89,1.2-1Z"/>
      <path d="M234.9,53.16v4.4h12.56c.37,0,1.36.87,1.54,1.22.76,1.49-.2,3.1-1.8,3.29-4.55-.21-9.94.56-14.4.08-1.57-.17-2.32-1.15-2.47-2.66-.21-2.05-.19-6.18,0-8.26.12-1.37.59-2.47,2.11-2.66,3.37-.41,7.65.24,11.1.09,1.89.62,2.1,3.1.43,4.1-.12.07-.84.39-.89.39h-8.16Z"/>
      <path d="M274.87,59.02l-.45.19-6.88,11.82c-1.91,1.72-4.66,0-3.75-2.46l8.98-15.41c2.8-2.68,4.11.81,5.36,2.87,2.46,4.04,4.67,8.25,7.17,12.27,1.42,2.38-1.72,4.65-3.56,2.64l-6.88-11.92Z"/>
      <path d="M234.9,35v4.31l.28.28h8.44c.2,0,1.03.79,1.17,1.03.72,1.29.16,2.8-1.25,3.28-3.5-.13-7.69.46-11.11.1-1.39-.15-1.97-1.19-2.1-2.49-.2-2.04-.2-6.39,0-8.43.14-1.36.68-2.31,2.11-2.48,4.68-.53,10.39.36,15.18.04,2.64.54,1.56,4.36-.14,4.36h-12.56Z"/>
      <path d="M274.51,30.6l.38-.11,5.21-9.06c1.6-1.8,4.75-.1,3.31,2.94-1.91,4.04-4.97,8.04-6.98,12.09-1.01,1.22-2.62,1.21-3.61-.03-2-4.04-4.99-7.93-6.95-11.93-.65-1.33-.95-2.64.64-3.46,2.21-1.14,3.04.93,4.01,2.48,1.44,2.29,2.66,4.74,4.01,7.09Z"/>
      <path d="M189,30.64c1.5-.3,8.17-.22,9.84-.02,6.46.75,7.44,10.44,1.7,12.85-1.34.56-4.45.78-5.89.51-2.42-.47-2.47-3.92.03-4.34,1.4-.24,3.11.34,4.33-.44,1.33-.85,1.16-3.05-.18-3.8-1.62-.9-7.3-.18-9.52-.38-2.52-.23-2.52-3.92-.32-4.37Z"/>
      <path d="M145.44,66.75c-.79,1.5-1.03,3.81-3.11,3.97-1.15.09-2.19-.94-2.25-2.07-.05-.91,1.53-5.09,2.14-5.76.25-.27.67-.47.98-.67l15.12-.07c.37.06.95.35,1.21.63.36.39,2.04,4.24,2.15,4.81.4,2.09-1.13,3.86-3.2,2.84-1.29-.64-1.58-3.47-2.19-3.68h-10.85Z"/>
      <path d="M150.73,53.16c-.11-1.98-4.02-7.07-.56-7.98,1.68-.44,2.41.32,3.1,1.68.91,1.8,2.36,5.37,2.97,7.3.47,1.48.24,3.11-1.58,3.39-1.04.16-6.88.16-7.79-.08-1.41-.37-1.91-2.46-1-3.57.15-.18.96-.74,1.09-.74h3.76Z"/>
    </g>
  </g>
  <g>
    <path class="cls-1" d="M3.12,92.73v-8.2h2.62c.95,0,1.74.17,2.37.5s1.09.81,1.39,1.42c.3.61.45,1.34.45,2.18s-.15,1.57-.45,2.18c-.3.61-.76,1.08-1.39,1.41-.62.33-1.41.5-2.37.5h-2.62ZM4.29,91.75h1.41c.76,0,1.36-.12,1.8-.37.44-.25.76-.61.95-1.07s.29-1.02.29-1.66-.1-1.21-.29-1.67-.51-.83-.95-1.08c-.44-.25-1.05-.37-1.8-.37h-1.41v6.23Z"/>
    <path class="cls-1" d="M19.89,92.73v-8.2h5.16v.96h-3.99v2.62h3.64v.94h-3.64v2.72h3.99v.96h-5.16Z"/>
    <path class="cls-1" d="M37.74,92.87c-.6,0-1.13-.11-1.58-.32-.45-.21-.8-.52-1.05-.91-.25-.39-.37-.85-.37-1.37h1.23c0,.3.07.57.2.81.14.25.34.44.6.59.26.14.59.22.98.22.32,0,.6-.05.84-.15.24-.1.43-.24.56-.43s.21-.41.21-.68c0-.29-.07-.53-.2-.71s-.31-.34-.53-.47c-.22-.12-.47-.23-.76-.33-.28-.09-.57-.19-.87-.29-.68-.23-1.18-.53-1.52-.88-.33-.35-.5-.8-.5-1.34,0-.44.11-.83.32-1.17s.52-.59.92-.78c.4-.19.87-.28,1.41-.28s.99.1,1.39.29.7.46.93.81c.23.34.34.75.35,1.21h-1.24c0-.25-.06-.48-.18-.68-.12-.2-.29-.36-.5-.48-.22-.12-.49-.18-.81-.18-.27,0-.5.03-.71.11-.21.08-.37.21-.49.38-.12.17-.18.39-.18.66,0,.24.05.44.15.59.1.15.24.29.43.4.19.11.42.22.7.32.27.1.59.21.94.34.4.14.76.31,1.08.5s.58.43.77.73.29.67.29,1.13c0,.41-.11.8-.32,1.15-.21.36-.52.64-.94.87-.41.22-.93.33-1.55.33Z"/>
    <path class="cls-1" d="M50.38,92.73v-8.2h1.17v8.2h-1.17Z"/>
    <path class="cls-1" d="M65.23,92.87c-.75,0-1.41-.18-1.97-.53-.56-.35-1-.84-1.31-1.48-.31-.63-.47-1.37-.47-2.21s.16-1.57.49-2.21c.32-.64.79-1.14,1.39-1.5.6-.36,1.32-.54,2.15-.54.93,0,1.71.22,2.33.67.62.45,1.03,1.07,1.21,1.87h-1.34c-.12-.45-.36-.81-.74-1.07-.38-.26-.87-.39-1.47-.39s-1.08.13-1.5.39c-.43.26-.75.62-.98,1.1-.23.48-.34,1.04-.34,1.7s.11,1.23.34,1.71c.23.48.54.84.95,1.09.41.25.89.37,1.43.37.82,0,1.44-.24,1.86-.71s.67-1.11.74-1.91h-2.26v-.9h3.44v4.43h-1.05l-.12-1.5h-.03c-.2.35-.43.65-.69.9s-.57.43-.91.56c-.34.12-.72.19-1.15.19Z"/>
    <path class="cls-1" d="M79.26,92.73v-8.2h1.48l3.84,6.65h.04v-6.65h1.17v8.2h-1.48l-3.84-6.65h-.03v6.65h-1.17Z"/>
    <path class="cls-1" d="M107.27,92.73v-8.2h3.03c.57,0,1.05.09,1.43.28.38.18.67.43.86.75.19.32.29.67.29,1.07s-.09.76-.27,1.04c-.18.28-.42.5-.71.65-.3.15-.61.24-.94.26l.16-.12c.36,0,.69.1.98.29s.53.43.7.73c.17.3.26.64.26,1.01,0,.42-.1.8-.3,1.14-.2.34-.5.61-.9.8s-.89.29-1.46.29h-3.13ZM108.44,88.07h1.73c.49,0,.87-.12,1.12-.35.26-.23.39-.55.39-.95s-.13-.7-.39-.93c-.26-.23-.64-.35-1.16-.35h-1.7v2.58ZM108.44,91.76h1.8c.52,0,.92-.12,1.2-.36.29-.24.43-.58.43-1.01s-.15-.77-.44-1.03c-.29-.26-.7-.39-1.21-.39h-1.78v2.79Z"/>
    <path class="cls-1" d="M126,92.87c-.57,0-1.09-.12-1.56-.35-.47-.23-.85-.58-1.12-1.05s-.41-1.08-.41-1.81v-5.13h1.17v5.14c0,.49.08.9.24,1.21s.39.55.69.7.64.23,1.02.23.74-.08,1.03-.23.51-.39.67-.7c.16-.32.24-.72.24-1.21v-5.14h1.17v5.13c0,.73-.14,1.34-.42,1.81s-.66.82-1.13,1.05c-.47.23-1,.35-1.59.35Z"/>
    <path class="cls-1" d="M139.18,92.73v-8.2h1.17v8.2h-1.17Z"/>
    <path class="cls-1" d="M150.45,92.73v-8.2h1.17v7.27h3.75v.93h-4.92Z"/>
    <path class="cls-1" d="M165.12,92.73v-8.2h2.62c.95,0,1.74.17,2.37.5s1.09.81,1.39,1.42c.3.61.45,1.34.45,2.18s-.15,1.57-.45,2.18c-.3.61-.76,1.08-1.39,1.41-.62.33-1.41.5-2.37.5h-2.62ZM166.29,91.75h1.41c.76,0,1.36-.12,1.8-.37.44-.25.76-.61.95-1.07s.29-1.02.29-1.66-.1-1.21-.29-1.67-.51-.83-.95-1.08c-.44-.25-1.05-.37-1.8-.37h-1.41v6.23Z"/>
    <path class="cls-1" d="M193.29,92.73v-8.2h2.78c.65,0,1.18.11,1.59.33s.72.51.92.87c.2.36.3.77.3,1.24s-.1.84-.3,1.21c-.2.37-.51.67-.93.89s-.95.33-1.61.33h-1.57v3.33h-1.17ZM194.46,88.51h1.52c.58,0,1-.14,1.28-.43.27-.28.41-.65.41-1.09s-.13-.81-.4-1.08c-.27-.27-.7-.4-1.3-.4h-1.51v3ZM197.58,92.73l-1.76-3.64h1.29l1.84,3.64h-1.37Z"/>
    <path class="cls-1" d="M208.72,92.73v-8.2h5.16v.96h-3.99v2.62h3.64v.94h-3.64v2.72h3.99v.96h-5.16Z"/>
    <path class="cls-1" d="M223.82,92.73v-8.2h1.58l2.6,5.86h.04l2.59-5.86h1.58v8.2h-1.17v-6.34h-.04l-2.33,5.16h-1.31l-2.33-5.16h-.03v6.34h-1.17Z"/>
    <path class="cls-1" d="M246.19,92.87c-.8,0-1.5-.18-2.11-.53-.61-.36-1.09-.85-1.43-1.49-.34-.64-.52-1.38-.52-2.22s.17-1.57.52-2.21c.34-.64.82-1.13,1.43-1.49s1.31-.54,2.11-.54s1.53.18,2.14.54,1.08.86,1.42,1.49c.34.64.51,1.37.51,2.21s-.17,1.58-.51,2.22c-.34.64-.81,1.13-1.42,1.49-.61.36-1.32.53-2.14.53ZM246.21,91.83c.57,0,1.07-.13,1.5-.39.43-.26.77-.62,1.01-1.1.24-.48.36-1.05.36-1.71s-.12-1.23-.36-1.71c-.24-.48-.57-.84-1.01-1.09-.43-.25-.94-.38-1.5-.38s-1.07.13-1.5.38c-.43.25-.77.62-1.01,1.09-.24.48-.36,1.05-.36,1.71s.12,1.23.36,1.71c.24.48.57.84,1.01,1.1.43.26.93.39,1.5.39Z"/>
    <path class="cls-1" d="M260.21,92.73v-8.2h2.62c.95,0,1.74.17,2.37.5s1.09.81,1.39,1.42c.3.61.45,1.34.45,2.18s-.15,1.57-.45,2.18c-.3.61-.76,1.08-1.39,1.41-.62.33-1.41.5-2.37.5h-2.62ZM261.38,91.75h1.41c.76,0,1.36-.12,1.8-.37.44-.25.76-.61.95-1.07s.29-1.02.29-1.66-.1-1.21-.29-1.67-.51-.83-.95-1.08c-.44-.25-1.05-.37-1.8-.37h-1.41v6.23Z"/>
    <path class="cls-1" d="M276.98,92.73v-8.2h5.16v.96h-3.99v2.62h3.64v.94h-3.64v2.72h3.99v.96h-5.16Z"/>
    <path class="cls-1" d="M292.08,92.73v-8.2h1.17v7.27h3.75v.93h-4.92Z"/>
  </g>
  <g>
    <polygon points="3.01 31.77 20.94 27.03 20.94 31.71 39.15 37.55 39.15 38.04 20.94 33.57 3.01 38.05 3.01 31.77"/>
    <polygon points="20.94 64.41 20.94 68.89 39.15 70.22 39.15 70.68 3.01 70.68 3.01 64.41 20.94 64.41"/>
    <polygon points="3.01 42.8 20.94 39.58 20.94 44.54 39.15 48.42 39.15 48.92 20.94 46.09 3.01 48.93 3.01 42.8"/>
    <polygon points="3.01 53.53 20.94 52.27 20.94 56.67 39.15 59.07 39.15 59.59 20.94 58.53 3.01 59.8 3.01 53.53"/>
    <polygon points="80.44 31.77 98.37 27.03 98.37 31.71 116.59 37.55 116.59 38.04 98.37 33.57 80.44 38.05 80.44 31.77"/>
    <polygon points="80.44 21.12 98.37 14.71 98.37 19.39 116.59 26.34 116.59 26.83 98.37 21.25 80.44 26.84 80.44 21.12"/>
    <polygon points="98.37 64.41 98.37 68.89 116.59 70.22 116.59 70.68 80.44 70.68 80.44 64.41 98.37 64.41"/>
    <polygon points="80.44 42.8 98.37 39.58 98.37 44.54 116.59 48.42 116.59 48.92 98.37 46.09 80.44 48.93 80.44 42.8"/>
    <polygon points="80.44 53.53 98.37 52.27 98.37 56.67 116.59 59.07 116.59 59.59 98.37 58.53 80.44 59.8 80.44 53.53"/>
    <polygon points="41.72 31.77 59.65 27.03 59.65 31.71 77.87 37.55 77.87 38.04 59.65 33.57 41.72 38.05 41.72 31.77"/>
    <polygon points="41.72 21.12 59.65 15.26 59.65 19.39 77.87 26.34 77.87 26.83 59.65 21.25 41.72 26.84 41.72 21.12"/>
    <polygon points="41.72 10.61 59.65 3.08 59.65 7.21 77.87 15.83 77.87 16.33 59.65 9.07 41.72 16.33 41.72 10.61"/>
    <polygon points="59.65 64.41 59.65 68.89 77.87 70.22 77.87 70.68 41.72 70.68 41.72 64.41 59.65 64.41"/>
    <polygon points="41.72 42.8 59.65 39.58 59.65 44.54 77.87 48.42 77.87 48.92 59.65 46.09 41.72 48.93 41.72 42.8"/>
    <polygon points="41.72 53.53 59.65 52.27 59.65 56.67 77.87 59.07 77.87 59.59 59.65 58.53 41.72 59.8 41.72 53.53"/>
  </g>
</svg>